<svg xmlns="http://www.w3.org/2000/svg" width="24" height="24" fill="none"><path fill="#FABC26" d="m19.304 13.778-7.711-1.798c-2.299-.536-3.74-2.89-3.22-5.26.52-2.368 2.805-3.853 5.103-3.317 2.298.536 3.74 2.89 3.22 5.258a4.38 4.38 0 0 1-1.889 2.75l-.003.003a.112.112 0 0 0-.045.09.11.11 0 0 0 .081.106l3.431.8a.21.21 0 0 0 .216-.082A7.823 7.823 0 0 0 20 7.692c0-4.095-3.105-7.441-7.02-7.68a8.316 8.316 0 0 0-5.34 1.576c-3.86 2.787-4.8 8.27-2.096 12.248l6.86 10.096a.16.16 0 0 0 .13.068c.053 0 .1-.027.13-.068L19.4 14.03a.169.169 0 0 0 .027-.093.164.164 0 0 0-.123-.16Z"/></svg>