<svg xmlns="http://www.w3.org/2000/svg" width="40" height="40" fill="none" viewBox="0 0 40 40">
  <circle cx="20" cy="20" r="20" fill="#00D352"/>
  <path fill="#000" d="M21.628 13.174 19.816 10h-3.648l2.516 3.174h2.944Zm4.616 1.564h-3.196v.91c-1.002-.649-2.172-1.043-3.426-1.043-3.66-.001-6.622 2.931-6.622 6.543 0 3.616 2.967 6.543 6.622 6.543 1.254 0 2.425-.395 3.426-1.048v.912h3.196V14.738Zm-6.622 9.909c-1.954 0-3.54-1.569-3.54-3.499 0-1.93 1.586-3.498 3.54-3.498s3.54 1.563 3.54 3.498c-.004 1.93-1.586 3.498-3.54 3.498Z"/>
</svg>
