<svg xmlns="http://www.w3.org/2000/svg" width="40" height="40" fill="none" viewBox="0 0 40 40">
  <g clip-path="url(#a)">
    <path fill="#000" d="M20 40c11.046 0 20-8.954 20-20S31.046 0 20 0 0 8.954 0 20s8.954 20 20 20Z"/>
    <path fill="#fff" d="M10.616 15.25c.356-.444.597-1.04.533-1.65-.52.026-1.154.343-1.522.787-.33.381-.622 1.003-.546 1.587.584.05 1.167-.292 1.535-.724Zm.526.838c-.847-.05-1.568.48-1.973.48s-1.025-.455-1.695-.443c-.873.013-1.683.507-2.126 1.292-.91 1.57-.24 3.898.646 5.177.43.633.948 1.329 1.631 1.304.646-.025.899-.418 1.683-.418s1.012.418 1.695.405c.709-.012 1.152-.633 1.582-1.266.493-.72.695-1.417.708-1.455-.013-.013-1.366-.532-1.379-2.09-.012-1.303 1.063-1.923 1.114-1.961-.608-.898-1.557-1-1.886-1.025Zm7.382-1.764c1.842 0 3.125 1.27 3.125 3.119 0 1.855-1.31 3.132-3.172 3.132h-2.04v3.244h-1.473v-9.495h3.56Zm-2.087 5.014h1.692c1.283 0 2.013-.691 2.013-1.889 0-1.197-.73-1.882-2.007-1.882h-1.698v3.77Zm5.597 2.514c0-1.211.928-1.955 2.573-2.047l1.895-.112v-.533c0-.77-.52-1.23-1.388-1.23-.823 0-1.336.395-1.461 1.013h-1.342c.079-1.25 1.145-2.171 2.855-2.171 1.678 0 2.751.888 2.751 2.276v4.771h-1.362v-1.138h-.033c-.401.77-1.277 1.257-2.185 1.257-1.355 0-2.303-.843-2.303-2.086Zm4.468-.625v-.547l-1.704.106c-.849.059-1.33.434-1.33 1.026 0 .605.5 1 1.264 1 .994 0 1.77-.684 1.77-1.585Zm2.701 5.139v-1.152c.105.027.342.027.46.027.659 0 1.014-.277 1.231-.988 0-.013.125-.42.125-.427l-2.5-6.93h1.54l1.75 5.633h.026l1.75-5.633h1.501l-2.593 7.285c-.592 1.678-1.276 2.218-2.71 2.218a5.49 5.49 0 0 1-.58-.033Z"/>
  </g>
  <defs>
    <clipPath id="a">
      <path fill="#fff" d="M0 0h40v40H0z"/>
    </clipPath>
  </defs>
</svg>
