<svg xmlns="http://www.w3.org/2000/svg" width="41" height="40" fill="none" viewBox="0 0 41 40">
  <path fill="#4C5C75" d="M6.486 17.236h27.065V35.53H6.486V17.236Z"/>
  <path fill="#F3F1FC" d="M34.907 34h-3.243a110.883 110.883 0 0 1 0-14h3.243c.295 4.765.295 9.412 0 14Z"/>
  <path fill="#E9E7FC" d="M34.907 34.06c.354-4.53.354-9.06 0-13.707 0 0-.235 8.177-3.243 13.353v.295l3.243.058Z"/>
  <path fill="#DEDFFB" d="M34.907 20.353h-3.243a.528.528 0 0 1-.53-.53v-.881c0-.295.235-.53.53-.53h3.243c.295 0 .531.235.531.53v.882c0 .294-.236.53-.53.53Zm0 15.353h-3.243a.528.528 0 0 1-.53-.53v-.882c0-.294.235-.529.53-.529h3.243c.295 0 .531.235.531.53v.882c0 .294-.236.53-.53.53Z"/>
  <path fill="#F3F1FC" d="M27.89 34h-3.242a110.92 110.92 0 0 1 0-14h3.243c.294 4.765.353 9.412 0 14Z"/>
  <path fill="#E9E7FC" d="M27.89 34.06c.354-4.53.354-9.06 0-13.707 0 0-.235 8.177-3.242 13.353v.295l3.243.058Z"/>
  <path fill="#DEDFFB" d="M27.89 20.353h-3.242a.528.528 0 0 1-.531-.53v-.881c0-.295.236-.53.53-.53h3.244c.294 0 .53.235.53.53v.882c0 .294-.236.53-.53.53Zm0 15.353h-3.242a.528.528 0 0 1-.531-.53v-.882c0-.294.236-.529.53-.529h3.244c.294 0 .53.235.53.53v.882c0 .294-.236.53-.53.53Z"/>
  <path fill="#F3F1FC" d="M15.449 34h-3.243a110.883 110.883 0 0 1 0-14h3.243a92.481 92.481 0 0 1 0 14Z"/>
  <path fill="#E9E7FC" d="M15.449 34.06c.354-4.53.354-9.06 0-13.707 0 0-.236 8.177-3.243 13.353v.295l3.243.058Z"/>
  <path fill="#DEDFFB" d="M15.449 20.353h-3.243a.528.528 0 0 1-.53-.53v-.881c0-.295.235-.53.53-.53h3.243c.295 0 .53.235.53.53v.882c0 .294-.235.53-.53.53Zm0 15.353h-3.243a.528.528 0 0 1-.53-.53v-.882c0-.294.235-.529.53-.529h3.243c.295 0 .53.235.53.53v.882c0 .294-.235.53-.53.53Z"/>
  <path fill="#F3F1FC" d="M8.432 34H5.189a110.912 110.912 0 0 1 0-14h3.243a92.458 92.458 0 0 1 0 14Z"/>
  <path fill="#E9E7FC" d="M8.432 34.06c.354-4.53.354-9.06 0-13.707 0 0-.236 8.177-3.243 13.353v.295l3.243.058Z"/>
  <path fill="#DEDFFB" d="M8.432 20.353H5.189a.528.528 0 0 1-.53-.53v-.881c0-.295.235-.53.53-.53h3.243c.295 0 .53.235.53.53v.882c0 .294-.235.53-.53.53Zm0 15.353H5.189a.528.528 0 0 1-.53-.53v-.882c0-.294.235-.529.53-.529h3.243c.295 0 .53.235.53.53v.882c0 .294-.235.53-.53.53Z"/>
  <path fill="#F3F1FC" d="M2.948 15.117h34.2v2h-34.2v-2Z"/>
  <path fill="#B0B8CF" d="m35.438 19.117 1.71-2h-34.2l1.71 2h30.78Z"/>
  <path fill="#C9CEE2" d="M36.323 34.824H3.773c-.412 0-.825.353-.825.824v1H37.03v-1a.716.716 0 0 0-.707-.824Z"/>
  <path fill="#9EA9C9" d="M37.09 36.647v-1c-12.148-.117-21.346.53-34.083.53v.47H37.09Z"/>
  <path fill="#C9CEE2" d="M37.856 36.118H2.24c-.413 0-.826.353-.826.823v1.294a.59.59 0 0 0 .59.589h36.028a.59.59 0 0 0 .59-.588V36.94c0-.47-.354-.823-.767-.823Zm-.06-22.765L20.639 1.412c-.413-.294-1.003-.294-1.474 0L2.004 13.353c-.766.53-.412 1.765.531 1.765h34.672c.944 0 1.356-1.235.59-1.765Z"/>
  <path fill="#9EA9C9" d="m6.958 12.766 12.913-9 12.914 9H6.958Z"/>
  <path fill="#B0B8CF" d="M2.064 38.824h36.028a.59.59 0 0 0 .59-.588V36.94s-21.287 2.53-37.208 1.294c0 .354.236.589.59.589Z"/>
  <path fill="#fff" d="M19.93 8.177V7.001c.236 0 .472.059.708.117.413.177.59-.47.236-.588a2.37 2.37 0 0 0-.885-.176V6.06c0-.353-.472-.353-.472 0v.294c-.707.059-1.238.53-1.238 1.176 0 .706.59.941 1.238 1.118v1.118c-.294 0-.59-.118-.825-.236-.413-.176-.649.412-.236.588.354.118.708.236 1.061.236v.294c0 .353.472.353.472 0v-.294c.826-.06 1.297-.588 1.297-1.118-.059-.647-.648-.882-1.356-1.059Zm-.471-.176c-.295-.059-.59-.177-.59-.47 0-.295.295-.471.59-.53v1Zm.471 1.823v-1c.295.06.59.177.59.47.059.295-.177.472-.59.53Zm-6.191 4.177c-1.18.176-2.359.235-3.538.235-1.12 0-2.418-.059-3.538-.235 1.12-.177 2.418-.236 3.538-.236 1.18 0 2.359.06 3.538.236Zm17.69 22.941c-1.18.176-2.36.235-3.538.235-1.12 0-2.418-.059-3.538-.235 1.12-.176 2.417-.235 3.538-.235 1.179 0 2.358.059 3.538.235Zm-.06-26.47c-1.06-.53-2.004-1.177-2.948-1.883a32.117 32.117 0 0 1-2.712-2.235c1.002.53 2.064 1.235 2.948 1.882a32.097 32.097 0 0 1 2.712 2.235Z"/>
</svg>
