<svg xmlns="http://www.w3.org/2000/svg" width="40" height="40" fill="none" viewBox="0 0 40 40">
  <path fill="#FEBC1F" d="m37.4 21.331-24.237 13.34a2.746 2.746 0 0 1-3.73-1.082l-7.387-13.42a2.746 2.746 0 0 1 1.083-3.73L27.366 3.098a2.746 2.746 0 0 1 3.73 1.082l7.386 13.42a2.747 2.747 0 0 1-1.082 3.73v.001Z"/>
  <path fill="#FFD475" d="M36.872 20.37 12.633 33.71a2.747 2.747 0 0 1-3.73-1.083l-7.386-13.42A2.746 2.746 0 0 1 2.6 15.479L26.837 2.137a2.746 2.746 0 0 1 3.73 1.082l7.386 13.42a2.746 2.746 0 0 1-1.082 3.73v.002Z"/>
  <path fill="#FEBC1F" d="M26.837 2.138 2.6 15.478a2.746 2.746 0 0 0-1.082 3.73l7.387 13.42S2.02 19.467 29.288 2.044a2.739 2.739 0 0 0-2.45.095Z"/>
  <path fill="#1D2943" d="m3.688 20.854.928 1.685a.878.878 0 0 0 1.192.346l25.57-14.072a.879.879 0 0 0 .346-1.193l-.928-1.685a.878.878 0 0 0-1.192-.346L4.034 19.661a.878.878 0 0 0-.346 1.193Z"/>
  <path fill="#4C5C75" d="m3.431 20.385.928 1.685a.878.878 0 0 0 1.192.346l25.57-14.072a.878.878 0 0 0 .346-1.192l-.928-1.686a.878.878 0 0 0-1.193-.346L3.776 19.193a.878.878 0 0 0-.345 1.193Z"/>
  <path fill="#5094FF" d="M33.018 38.204H5.353a2.746 2.746 0 0 1-2.747-2.746v-15.32a2.746 2.746 0 0 1 2.747-2.745h27.665a2.747 2.747 0 0 1 2.746 2.745v15.32a2.747 2.747 0 0 1-2.746 2.746Z"/>
  <path fill="#57B3FE" d="M5.352 37.105h27.666a2.746 2.746 0 0 0 2.747-2.747V19.04a2.747 2.747 0 0 0-2.747-2.746H5.353a2.747 2.747 0 0 0-2.747 2.746v15.32a2.746 2.746 0 0 0 2.747 2.746Z"/>
  <path fill="#5094FF" d="M5.352 16.294h27.666a2.746 2.746 0 0 1 2.746 2.745v15.32S35.448 19.508 3.16 17.39a2.738 2.738 0 0 1 2.193-1.098Z"/>
  <path fill="#E3E7F0" d="M33.613 32.176v.426h-.006c.011.577-.47 1.06-1.05 1.06h-2.786c-.569 0-1.06-.475-1.049-1.06h-.006v-.426h.069c.164-.414.612-.698 1.083-.698h2.594c.47 0 .918.284 1.083.698h.068Z"/>
  <path fill="#fff" d="M32.555 33.24H29.86c-.542 0-1.055-.368-1.132-.906a1.063 1.063 0 0 1 1.05-1.215h2.683c.576 0 1.112.418 1.147.992a1.059 1.059 0 0 1-1.054 1.13Z"/>
  <path fill="#E3E7F0" d="M25.626 32.176v.426h-.005c.011.577-.47 1.06-1.05 1.06h-2.786c-.57 0-1.06-.475-1.05-1.06h-.005v-.426h.068c.165-.414.613-.698 1.084-.698h2.593c.47 0 .92.284 1.084.698h.067Z"/>
  <path fill="#fff" d="M24.569 33.24h-2.694c-.543 0-1.055-.368-1.131-.906a1.062 1.062 0 0 1 1.049-1.215h2.683c.576 0 1.112.418 1.147.992a1.057 1.057 0 0 1-1.054 1.13Z"/>
  <path fill="#E3E7F0" d="M17.64 32.176v.426h-.005c.01.577-.47 1.06-1.05 1.06H13.8c-.57 0-1.06-.475-1.05-1.06h-.006v-.426h.07c.164-.414.612-.698 1.082-.698h2.594c.471 0 .919.284 1.083.698h.069Z"/>
  <path fill="#fff" d="M16.582 33.24H13.89c-.542 0-1.055-.368-1.132-.906a1.063 1.063 0 0 1 1.05-1.215h2.682c.577 0 1.112.418 1.148.992a1.055 1.055 0 0 1-1.055 1.13Z"/>
  <path fill="#E3E7F0" d="M9.654 32.176v.426h-.006c.012.577-.47 1.06-1.049 1.06H5.813c-.57 0-1.06-.475-1.05-1.06h-.005v-.426h.068c.165-.414.612-.698 1.083-.698h2.594c.47 0 .919.284 1.083.698h.068Z"/>
  <path fill="#fff" d="M8.596 33.24H5.902c-.542 0-1.055-.368-1.13-.906A1.062 1.062 0 0 1 5.82 31.12h2.683c.575 0 1.111.418 1.147.992a1.057 1.057 0 0 1-1.055 1.13Z"/>
  <path fill="#FEBC1F" d="M4.76 21.133v2.562c0 .646.524 1.17 1.17 1.17h4.798a1.17 1.17 0 0 0 1.17-1.17v-2.562a1.17 1.17 0 0 0-1.17-1.17H5.93a1.17 1.17 0 0 0-1.169 1.17Z"/>
  <path fill="#FFD475" d="M4.76 20.733v2.562c0 .646.524 1.17 1.17 1.17h4.798a1.17 1.17 0 0 0 1.17-1.17v-2.563a1.17 1.17 0 0 0-1.17-1.17H5.93a1.17 1.17 0 0 0-1.169 1.17Z"/>
  <path fill="#FEBC1F" d="M8.205 21.737v-2.174h-.556v2.174H4.76v.556h1.58v2.172h.555v-2.172h2.502v2.172h.555v-2.172h1.945v-.556H8.205Z"/>
  <path fill="#fff" d="M33.106 23.656h-3.128c-.261 0-.507-.176-.544-.435a.508.508 0 0 1 .504-.584h3.124c.276 0 .533.2.55.477a.508.508 0 0 1-.506.542Zm0-2.18h-5.492c-.26 0-.506-.177-.543-.436a.51.51 0 0 1 .504-.583h5.486c.277 0 .534.2.55.476a.508.508 0 0 1-.505.543ZM32.27 9.6a23.702 23.702 0 0 1 3.195 5.464A23.693 23.693 0 0 1 32.27 9.6ZM7.908 15.063a30.217 30.217 0 0 1 6.151-3.649 30.23 30.23 0 0 1-6.15 3.649Zm15.734 20.663a30.224 30.224 0 0 1 7.152 0 30.203 30.203 0 0 1-7.152 0Z"/>
</svg>
