<svg xmlns="http://www.w3.org/2000/svg" width="40" height="40" fill="none" viewBox="0 0 40 40">
  <path fill="#000" d="M18.144 21.83a.622.622 0 0 0-.225-.007 1.492 1.492 0 0 1-1.32-1.479.656.656 0 1 0-1.312 0 2.807 2.807 0 0 0 2.064 2.703v.656a.656.656 0 1 0 1.312 0v-.617a2.802 2.802 0 0 0-.574-5.544 1.49 1.49 0 1 1 1.49-1.49.656.656 0 1 0 1.312 0 2.807 2.807 0 0 0-2.228-2.742v-.597a.656.656 0 1 0-1.312 0v.637a2.802 2.802 0 0 0 .738 5.504 1.489 1.489 0 0 1 .055 2.977Z"/>
  <path fill="#000" d="M8.575 18.249a9.514 9.514 0 0 0 9.514 9.514 9.514 9.514 0 0 0 9.515-9.514 9.514 9.514 0 0 0-9.515-9.515c-5.252.006-9.508 4.263-9.514 9.515Zm9.514-8.202a8.202 8.202 0 1 1-8.202 8.202 8.211 8.211 0 0 1 8.202-8.202Z"/>
  <path fill="#000" d="m30.838 29.38-5.14 2.428a4.186 4.186 0 0 0-3.569-2.202l-4.744-.13a5.01 5.01 0 0 1-2.157-.557l-.482-.25a8.517 8.517 0 0 0-7.888.008l.03-1.094a.656.656 0 0 0-.638-.674l-5.203-.143a.657.657 0 0 0-.674.638L.06 38.821a.656.656 0 0 0 .638.674l5.203.144h.018A.656.656 0 0 0 6.574 39l.015-.546 1.352-.724a2.319 2.319 0 0 1 1.73-.189l8.071 2.265A8.637 8.637 0 0 0 19.56 40c1.262 0 2.51-.272 3.657-.798a.607.607 0 0 0 .081-.045L35 31.587a.656.656 0 0 0 .215-.874 3.314 3.314 0 0 0-4.377-1.333ZM1.389 38.202l.278-10.106 3.891.107-.278 10.106-3.89-.107Zm21.236-.172a7.439 7.439 0 0 1-4.55.508l-8.05-2.26a3.628 3.628 0 0 0-2.704.296l-.69.37.184-6.72a7.212 7.212 0 0 1 7.327-.39l.483.25a6.338 6.338 0 0 0 2.724.704l4.745.13a2.878 2.878 0 0 1 2.735 2.293l-7.068-.195a.657.657 0 0 0-.036 1.312l7.8.215h.018a.656.656 0 0 0 .655-.638 4.157 4.157 0 0 0-.063-.852l5.272-2.49a2.005 2.005 0 0 1 2.282.31L22.625 38.03Zm-3.88-31.14V.655a.656.656 0 1 0-1.312 0V6.89a.656.656 0 1 0 1.312 0Zm4.921 0V3.936a.656.656 0 0 0-1.312 0v2.952a.656.656 0 1 0 1.312 0Zm-9.841 0V3.936a.656.656 0 1 0-1.313 0v2.952a.656.656 0 1 0 1.313 0Z"/>
</svg>
