<svg xmlns="http://www.w3.org/2000/svg" width="40" height="40" fill="none" viewBox="0 0 40 40">
  <g clip-path="url(#a)">
    <path fill="#383E41" d="M18.67 19.785v4.628H17.2V12.986h3.894c.986 0 1.828.33 2.516.987.704.658 1.055 1.46 1.055 2.41 0 .97-.351 1.774-1.055 2.424-.68.65-1.522.97-2.516.97h-2.425v.008Zm0-5.391v3.984h2.454c.582 0 1.071-.198 1.453-.589.39-.39.59-.864.59-1.4 0-.527-.2-.993-.59-1.383-.382-.406-.864-.605-1.453-.605H18.67v-.007Zm9.835 1.942c1.086 0 1.942.29 2.57.872.627.581.94 1.377.94 2.386v4.819h-1.4v-1.086h-.06c-.605.895-1.415 1.338-2.425 1.338-.864 0-1.583-.252-2.164-.765-.582-.512-.872-1.147-.872-1.912 0-.81.306-1.453.918-1.927.611-.482 1.43-.719 2.447-.719.872 0 1.59.16 2.15.482v-.337c0-.512-.2-.94-.605-1.3a2.073 2.073 0 0 0-1.423-.535c-.818 0-1.468.344-1.942 1.04l-1.293-.81c.711-1.033 1.767-1.546 3.159-1.546Zm-1.897 5.675c0 .383.16.704.49.956.32.253.703.383 1.14.383.619 0 1.17-.23 1.651-.689.482-.459.727-.994.727-1.614-.46-.359-1.094-.543-1.912-.543-.597 0-1.094.146-1.492.429-.405.298-.604.657-.604 1.078ZM40 16.59l-4.895 11.258h-1.514l1.82-3.94-3.227-7.318h1.598l2.325 5.613h.03l2.264-5.613H40Z"/>
    <path fill="#0085F7" d="M12.706 17.475H6.55v2.523l3.545.001a3.037 3.037 0 0 1-1.316 2.033l-.063 1.509 2.174.128c1.231-1.14 1.937-2.825 1.937-4.817 0-.462-.04-.923-.122-1.377Z"/>
    <path fill="#00A94B" d="M8.78 22.033c-.587.396-1.343.628-2.228.628-1.71 0-3.16-1.152-3.679-2.704L1.06 19.67l-.362 1.976a6.552 6.552 0 0 0 5.855 3.608c1.77 0 3.256-.582 4.338-1.584h.001l-2.11-1.637Z"/>
    <path fill="#FB0" d="M2.668 18.702c0-.436.073-.857.205-1.254l-.566-1.688H.697A6.518 6.518 0 0 0 0 18.702a6.53 6.53 0 0 0 .697 2.942l2.176-1.688a3.948 3.948 0 0 1-.205-1.254Z"/>
    <path fill="#FF4031" d="M6.552 12.152a6.553 6.553 0 0 0-5.855 3.609l2.176 1.689c.52-1.553 1.97-2.705 3.68-2.705.965 0 1.83.333 2.513.983l1.87-1.868C9.8 12.802 8.32 12.152 6.552 12.152Z"/>
  </g>
  <defs>
    <clipPath id="a">
      <path fill="#fff" d="M0 0h40v40H0z"/>
    </clipPath>
  </defs>
</svg>
