<svg xmlns="http://www.w3.org/2000/svg" width="40" height="40" fill="none" viewBox="0 0 40 40">
  <g clip-path="url(#a)">
    <path fill="url(#b)" d="M33.219.06H6.752A6.667 6.667 0 0 0 .086 6.728v26.49a6.667 6.667 0 0 0 6.666 6.667H33.22a6.667 6.667 0 0 0 6.667-6.667V6.727A6.667 6.667 0 0 0 33.219.061Z"/>
    <path fill="#fff" d="M13.368 23.107v-4.49c0-1.274-.682-1.879-1.827-1.879-.952 0-1.776.566-2.136 1.132-.232-.707-.81-1.132-1.724-1.132-.952 0-1.776.592-2.033.965v-.81H4.014v6.214h1.634v-4.181c.244-.348.72-.734 1.287-.734.669 0 .926.412.926.991v3.924h1.647v-4.194c.231-.335.707-.721 1.286-.721.67 0 .927.412.927.99v3.925h1.647Zm4.49.154c-2.046 0-3.28-1.492-3.28-3.268 0-1.762 1.234-3.255 3.28-3.255 2.059 0 3.294 1.493 3.294 3.255 0 1.776-1.235 3.268-3.294 3.268Zm0-1.453c1.017 0 1.595-.837 1.595-1.815 0-.965-.579-1.8-1.595-1.8-1.017 0-1.583.835-1.583 1.8 0 .978.567 1.815 1.583 1.815Zm10.331 1.299V18.72c0-1.21-.656-1.982-2.02-1.982-1.016 0-1.775.49-2.174.965v-.81h-1.634v6.214h1.634v-4.181c.27-.374.772-.734 1.415-.734.695 0 1.145.296 1.145 1.158v3.757h1.634Zm4.503.154c-2.045 0-3.28-1.492-3.28-3.268 0-1.762 1.235-3.255 3.28-3.255 2.059 0 3.294 1.493 3.294 3.255 0 1.776-1.235 3.268-3.294 3.268Zm0-1.453c1.017 0 1.596-.837 1.596-1.815 0-.965-.58-1.8-1.596-1.8s-1.582.835-1.582 1.8c0 .978.566 1.815 1.582 1.815Z"/>
  </g>
  <defs>
    <linearGradient id="b" x1="20.447" x2="20.447" y1=".534" y2="39.33" gradientUnits="userSpaceOnUse">
      <stop stop-color="#373B45"/>
      <stop offset="1" stop-color="#181A1D"/>
    </linearGradient>
    <clipPath id="a">
      <path fill="#fff" d="M0 0h40v40H0z"/>
    </clipPath>
  </defs>
</svg>
