<svg xmlns="http://www.w3.org/2000/svg" width="40" height="40" fill="none" viewBox="0 0 40 40">
  <path fill="#690DD3" d="M31.072 0H8.928a8.9 8.9 0 0 0-6.313 2.615A8.9 8.9 0 0 0 0 8.928v22.144a8.9 8.9 0 0 0 2.615 6.313A8.9 8.9 0 0 0 8.928 40h22.144a8.9 8.9 0 0 0 6.313-2.615A8.9 8.9 0 0 0 40 31.072V8.928a8.9 8.9 0 0 0-2.615-6.313A8.9 8.9 0 0 0 31.072 0Z"/>
  <path fill="#fff" d="M22.737 29.664v-6.443H17.26v6.443h-4.187l5.078 5.078a2.613 2.613 0 0 0 3.694 0l5.078-5.078h-4.186Zm-12.4-2.737v-13.85l-5.078 5.078a2.613 2.613 0 0 0 0 3.694l5.078 5.078Zm6.926-16.586v6.443h5.477V10.34h4.186l-5.078-5.078a2.613 2.613 0 0 0-3.694 0l-5.077 5.078h4.186Zm17.478 7.814-5.078-5.078v13.85l5.078-5.078a2.613 2.613 0 0 0 0-3.694Z"/>
</svg>
