<svg xmlns="http://www.w3.org/2000/svg" width="40" height="40" fill="none" viewBox="0 0 40 40">
  <rect width="40" height="40" fill="#fff" rx="20"/>
  <rect width="40" height="40" fill="url(#a)" rx="20"/>
  <g clip-path="url(#b)">
    <path fill="url(#c)" d="m11.345 15.5-7.185.015.015 7.185 7.185-.015-.015-7.185ZM9.74 21.08H5.78v-3.96h3.96v3.96Z"/>
    <path fill="#fff" d="m11.345 15.5-7.185.015.015 7.185 7.185-.015-.015-7.185ZM9.74 21.08H5.78v-3.96h3.96v3.96Z"/>
    <path fill="#fff" fill-rule="evenodd" d="M27.217 18.415c.517.489.761 1.096.761 1.821 0 .726-.258 1.333-.761 1.836a2.613 2.613 0 0 1-1.854.74c-.733 0-1.351-.251-1.854-.74a2.499 2.499 0 0 1-.762-1.836c0-.725.259-1.332.762-1.82a2.566 2.566 0 0 1 1.854-.756 2.57 2.57 0 0 1 1.854.755Zm-2.731 2.724c.23.237.517.37.862.37s.633-.118.863-.37c.23-.251.359-.547.359-.903 0-.355-.115-.651-.36-.888a1.113 1.113 0 0 0-.862-.37c-.345 0-.632.118-.862.37-.23.237-.36.533-.36.888.015.356.13.666.36.903Zm-5.117-3.33v4.855h1.395v-2.369c0-.799.474-1.258 1.264-1.258.158 0 .317.015.46.044v-1.347a20.384 20.384 0 0 1-.078-.008 2.759 2.759 0 0 0-.281-.021c-.647 0-1.15.28-1.365.77v-.667h-1.395Zm-5.849 0V24.5h1.394v-2.487c.144.43.704.725 1.409.725.66 0 1.221-.251 1.667-.725.445-.489.675-1.096.675-1.792a2.55 2.55 0 0 0-.675-1.776c-.446-.489-1.006-.726-1.667-.726-.72 0-1.265.296-1.409.726v-.637H13.52Zm3.737 2.412c0 .341-.115.637-.345.874-.244.237-.518.355-.848.34a1.195 1.195 0 0 1-1.236-1.214c0-.34.13-.621.36-.858.243-.237.53-.356.876-.356.33 0 .618.119.848.356.23.237.345.518.345.858Zm11.454-2.413v4.856h1.366V19.94c0-.562.33-.962.776-.962.445 0 .704.355.704.918v2.768h1.394V19.94c0-.562.33-.962.79-.962.446 0 .705.355.705.918v2.768h1.394v-2.946c0-1.258-.59-2.013-1.667-2.013-.776 0-1.308.266-1.567.77-.215-.504-.647-.77-1.279-.77-.56 0-1.05.28-1.222.71v-.607h-1.394Z" clip-rule="evenodd"/>
  </g>
  <defs>
    <linearGradient id="a" x1="20" x2="20" y1="0" y2="40" gradientUnits="userSpaceOnUse">
      <stop stop-color="#8E09FF"/>
      <stop offset="1" stop-color="#7B04DF"/>
    </linearGradient>
    <linearGradient id="c" x1="7.76" x2="7.76" y1="15.5" y2="22.7" gradientUnits="userSpaceOnUse">
      <stop stop-color="#8E09FF"/>
      <stop offset="1" stop-color="#7B04DF"/>
    </linearGradient>
    <clipPath id="b">
      <path fill="#fff" d="M4.16 15.5h31.68v9H4.16z"/>
    </clipPath>
  </defs>
</svg>
