<svg xmlns="http://www.w3.org/2000/svg" width="40" height="40" fill="none" viewBox="0 0 40 40">
  <rect width="40" height="40" fill="#E60C2A" rx="10"/>
  <path fill="#fff" d="M30.666 20.865c0 .968.79 1.572 1.625 1.572.867 0 1.626-.604 1.602-1.494.024-.921-.758-1.525-1.656-1.525-.836.008-1.54.557-1.571 1.447Zm-8.576 3.15h-1.997v-7.159h2.02l1.811 2.779 1.788-2.779h2.02v7.167h-1.997V20.17l-1.81 2.647-1.835-2.647v3.846Zm-6.827-.89-3.119-6.269h2.206l1.92 3.808.077-.186 1.13-3.622h2.229l-2.26 6.192c-.712 2.074-1.889 3.15-3.986 3.173v-2.074c1.052 0 1.625-.286 1.811-.998v-.024h-.008Zm-8.189.89H5v-7.159h6.742v7.167H9.643v-5.247h-2.57v5.24Zm25.326.372c-2.129 0-3.91-1.68-3.91-3.986 0-2.307 1-3.94 3.337-4.985.364-.185.944-.394 1.416-.812.186-.155.395-.418.495-.604l1.734 1.076c-.395 1.052-1.393 1.44-2.36 1.834-.921.34-1.788.712-2.129 1.548l.054.023c.496-.449 1.185-.657 1.866-.657 1.625 0 3.15 1.284 3.096 3.15-.055 2.337-1.897 3.413-3.6 3.413Z"/>
</svg>
