<svg xmlns="http://www.w3.org/2000/svg" width="40" height="40" fill="none" viewBox="0 0 40 40">
  <path fill="#FFF200" d="M0 0h40v40H0z"/>
  <path fill="#2B2D33" fill-rule="evenodd" d="m12.977 18.267-3.986-3.988-1.072 1.067a7.138 7.138 0 0 1 2.092-4.89c2.123-2.066 4.24-.857 4.97-.133l3.84 3.846-.954.951 2.091 2.09 2.09-2.09-.951-.95 3.84-3.847c.733-.729 2.852-1.938 4.97.128A7.13 7.13 0 0 1 32 15.34l-1.067-1.067-3.994 3.993-1.099-1.098v-2.63l-1.128 1.13v3.18l-1.558 1.556 8.074 8.074-3.196 3.204-8.074-8.083-8.073 8.074-3.196-3.204 8.074-8.065-1.556-1.556v-3.177l-1.13-1.134v2.631l-1.1 1.098Z" clip-rule="evenodd"/>
</svg>
