<svg xmlns="http://www.w3.org/2000/svg" width="40" height="40" fill="none" viewBox="0 0 40 40">
  <path fill="#221F1F" d="M37.402 20.074c-.038 9.348-7.877 16.887-17.479 16.85-9.602-.038-17.364-7.65-17.325-17 .038-9.348 7.877-16.887 17.479-16.85 9.62.038 17.363 7.651 17.325 17Z"/>
  <path fill="#05BC52" d="M26.267 28.378c-1.84 3.21-4.12 5.84-6.67 5.784-1.59-.037-3.104-.616-4.484-1.53.441-.784 3.22-4.702 11.154-4.254Zm10.676-8.304c-.039 9.087-7.667 16.44-17.02 16.383-9.352-.037-16.865-7.445-16.865-16.533A15.773 15.773 0 0 1 8.961 7.516c3.527-2.78 5.922-.654 6.765.97-.095-.69-.383-2.669-1.169-4.087a16.831 16.831 0 0 1 5.52-.877c9.353.056 16.904 7.446 16.866 16.552ZM19.1 10.594c2.453-1.623 6.688-2.519 8.93.878-1.36-7.763-7.244-3.303-8.93-.878Zm-3.412 7.334a12.5 12.5 0 0 1 1.802-1.624c3.066-2.295 6.42-2.873 7.513-1.268.421.615.44 1.474.114 2.407 1.093-1.754 1.438-3.378.767-4.274-1.13-1.492-4.638-.466-7.839 2.296a14.216 14.216 0 0 0-2.357 2.463Zm-5.347 1.38c1.552.28 3.239-1.641 3.756-4.328.518-2.688-.306-5.076-1.859-5.375-1.552-.28-3.239 1.643-3.756 4.33-.518 2.668.307 5.075 1.859 5.374Zm21.58-3.246c-14.853 9.684-25.106 4.777-25.106 4.777-.154 3.359 5.768 13.678 12.821 13.808 7.072.13 12.285-18.585 12.285-18.585ZM8.904 13.99c.479-2.464 1.935-4.255 3.258-3.994 1.322.243 2.012 2.445 1.552 4.908-.479 2.463-1.936 4.254-3.258 3.993-1.342-.242-2.032-2.444-1.552-4.907Zm2.817 2.09c.594.13 1.246-.579 1.476-1.568.23-.989-.077-1.903-.671-2.015-.403-.094-.824.205-1.131.709.268.13.402.466.268.746a.575.575 0 0 1-.651.336c-.115.877.172 1.66.709 1.792Z"/>
</svg>
