<svg xmlns="http://www.w3.org/2000/svg" width="40" height="40" fill="none" viewBox="0 0 40 40">
  <g clip-path="url(#a)">
    <mask id="b" width="36" height="15" x="2" y="13" maskUnits="userSpaceOnUse" style="mask-type:luminance">
      <path fill="#fff" d="M38 13.596H2v13.528h36V13.596Z"/>
    </mask>
    <g mask="url(#b)">
      <path fill="#051C61" d="M34.58 19.075a.134.134 0 0 0-.104.028.134.134 0 0 0-.049.096s-.194.456-.538.632c-.157.08-.223.122-.58.112h-1.793c-.97-.069-1.07-1.083-1.07-1.083 0-.124-.013-.288-.013-.358V17.35c.027-1.037.832-1.275.832-1.275.124-.029.252-.041.38-.037h1.794c.813.026 1.028.914 1.028.914a.174.174 0 0 0 .151.112h3.258a.126.126 0 0 0 .125-.127v-.348c-.049-2.411-2.24-2.995-2.694-2.984-.122 0-.292-.01-.362-.01h-5.066c-1.542.007-2.417 1.145-2.728 1.925-.099.242-.16.499-.182.76-.006.141-.018.367-.018.438v2.674a3.028 3.028 0 0 0 2.686 2.99c.112.005.3.011.369.011h5.065c2.313-.123 2.91-2.15 2.92-2.8 0-.188.007-.26.007-.33v-.057a.126.126 0 0 0-.077-.119.128.128 0 0 0-.048-.01l-3.293-.002Z"/>
    </g>
    <path fill="#051C61" d="M14.81 13.824c.035-.062.007-.11-.062-.11H2.14a.125.125 0 0 0-.125.125v2.426a.126.126 0 0 0 .125.126h3.092a.124.124 0 0 1 .116.078c.006.016.01.032.01.049v5.618a.127.127 0 0 0 .126.127h4.866a.127.127 0 0 0 .127-.127V16.52a.125.125 0 0 1 .077-.117.126.126 0 0 1 .048-.01h2.552a.248.248 0 0 0 .19-.109l1.466-2.46Zm2.034-.107a.319.319 0 0 0-.21.093s-2.237 2.223-2.23 5.312c.003 1.909.783 3.041.783 3.041a.297.297 0 0 0 .204.1h3.188c.07 0 .09-.044.046-.097 0 0-1.029-1.31-1.01-3.092.015-1.598.958-2.602.958-2.602a.283.283 0 0 1 .201-.1h2.004a.126.126 0 0 1 .116.078c.006.015.01.031.01.048v5.64a.127.127 0 0 0 .126.127h4.533a.126.126 0 0 0 .128-.127v-8.297a.127.127 0 0 0-.128-.124h-8.719Z"/>
    <path fill="#CF112B" d="M17.615 19.075c0 .335.033.67.1 1h6.51l.854-1.346H17.63c-.01.111-.015.227-.015.345m.229-1.338c-.094.267-.16.543-.197.824h7.54l.524-.824h-7.867Z"/>
    <path fill="#051C61" d="M2 23.651a.126.126 0 0 1 .125-.126h35.734a.127.127 0 0 1 .126.126v3.347a.125.125 0 0 1-.078.117.127.127 0 0 1-.048.01H2.125a.126.126 0 0 1-.089-.038.126.126 0 0 1-.036-.089v-3.347Z"/>
    <path fill="#fff" d="M5.326 24.64h-.541v1.852h-.358v-1.853h-.543v-.297h1.488l-.046.297Zm2.534.988a16.657 16.657 0 0 1-.254-.931c-.09.322-.184.632-.272.93h.527Zm.256.864-.175-.566h-.695l-.173.567h-.371l.704-2.151h.412l.687 2.15h-.39Zm2.956.029a.843.843 0 0 1-.68-.311c-.162-.195-.247-.458-.247-.758a1.358 1.358 0 0 1 .146-.65.89.89 0 0 1 .792-.493.85.85 0 0 1 .534.168l-.165.232a.588.588 0 0 0-.366-.121.476.476 0 0 0-.428.259c-.075.13-.113.31-.113.563 0 .252.028.406.084.527a.502.502 0 0 0 .479.304.565.565 0 0 0 .385-.136l.168.226a.932.932 0 0 1-.589.19m3.966-1.964-.098.025a.226.226 0 0 0-.121.053.327.327 0 0 0-.066.14l-.055.223c-.021.09-.04.18-.127.261a.41.41 0 0 1-.152.087v.007c.05.016.095.043.134.076a.49.49 0 0 1 .137.248l.097.345c.01.056.034.108.071.15a.323.323 0 0 0 .131.066l.093.028-.065.254-.118-.014c-.102-.01-.243-.029-.34-.12-.08-.083-.097-.19-.115-.28l-.071-.331c-.016-.064-.04-.157-.1-.21a.305.305 0 0 0-.212-.067h-.204v.992H13.5v-2.15h.357v.867h.236a.299.299 0 0 0 .217-.069c.056-.056.07-.14.086-.202l.06-.262a.469.469 0 0 1 .114-.243c.074-.073.153-.082.278-.1l.127-.018.068.243h-.005Zm2.592.025c-.37 0-.508.292-.508.806 0 .552.141.86.517.86.32 0 .486-.237.486-.815 0-.522-.108-.85-.493-.85m.01 1.939c-.613 0-.915-.474-.915-1.11 0-.705.36-1.103.899-1.103.605 0 .897.48.897 1.106 0 .671-.324 1.107-.882 1.107m4.525-.032-.1-1.333a8.49 8.49 0 0 1-.015-.372c-.016.07-.044.206-.084.343l-.392 1.362h-.304l-.358-1.303a5.273 5.273 0 0 1-.094-.406c0 .071-.012.277-.02.41l-.097 1.299h-.35l.194-2.15h.475l.33 1.215c.032.121.059.244.079.367.01-.065.038-.212.079-.36l.34-1.224h.476l.19 2.15-.35.002Zm2.94-.292c.161 0 .255-.048.304-.097a.342.342 0 0 0 .094-.256.336.336 0 0 0-.094-.256c-.085-.079-.207-.094-.304-.094h-.304v.701l.304.002Zm.632-1.856-.049.292H24.8v.57h.297c.163 0 .438 0 .63.186.15.15.173.35.173.473a.587.587 0 0 1-.152.427c-.178.185-.458.2-.665.2h-.64v-2.148h1.295Zm2.962 1.286a16.178 16.178 0 0 1-.254-.931c-.091.322-.184.632-.275.93h.529Zm.253.864-.174-.566h-.696l-.174.566h-.369l.706-2.15h.413l.687 2.15h-.393Zm3.217 0v-.995h-.733v.995h-.357v-2.15h.357v.863h.733v-.863h.357v2.15h-.357Zm3.89-1.935-.1.025a.222.222 0 0 0-.12.053.3.3 0 0 0-.066.14l-.057.223c-.02.09-.04.18-.128.261a.385.385 0 0 1-.15.087v.007c.05.016.095.042.135.076a.478.478 0 0 1 .135.248l.097.345a.31.31 0 0 0 .072.15.31.31 0 0 0 .13.066l.094.028-.066.254-.117-.014c-.103-.01-.246-.029-.34-.12-.082-.083-.098-.19-.117-.28l-.07-.331c-.016-.064-.04-.157-.098-.21a.306.306 0 0 0-.211-.067h-.206v.992h-.357v-2.15h.357v.867h.236a.3.3 0 0 0 .218-.069.41.41 0 0 0 .087-.202l.06-.262a.45.45 0 0 1 .115-.243c.071-.073.151-.082.275-.1l.129-.018.068.243h-.005Z"/>
  </g>
  <defs>
    <clipPath id="a">
      <path fill="#fff" d="M2 13.563h36v13.875H2z"/>
    </clipPath>
  </defs>
</svg>
