<svg xmlns="http://www.w3.org/2000/svg" width="40" height="40" fill="none" viewBox="0 0 40 40">
  <path fill="#224096" d="M3 3h21.59C31.428 3 37 8.553 37 15.41V37H15.41C8.572 37 3 31.447 3 24.59V3Z"/>
  <path fill="#fff" d="M19.702 14.334v8.696c0 .926-.204 1.758-.613 2.512-.408.753-1.02 1.334-1.852 1.773-.832.44-1.868.66-3.108.66-1.774 0-3.14-.455-4.065-1.366-.926-.91-1.397-2.103-1.397-3.61v-8.665h2.84v8.225c0 1.115.22 1.884.676 2.34.455.454 1.13.674 2.009.674.628 0 1.13-.11 1.523-.33.392-.22.675-.549.863-.988.188-.44.282-1.02.282-1.711v-8.21h2.842Zm2.203 0h4.19c1.79 0 3.14.251 4.066.753.926.503 1.382 1.382 1.382 2.653 0 .503-.079.974-.252 1.382-.172.408-.392.753-.706 1.004-.314.251-.675.44-1.114.518v.094a3.77 3.77 0 0 1 1.208.471c.361.22.66.55.864.974.204.423.33.989.33 1.695 0 .816-.205 1.507-.597 2.103-.393.597-.973 1.036-1.711 1.334-.738.299-1.617.471-2.637.471h-5.04V14.335h.017Zm2.857 5.321h1.648c.832 0 1.397-.125 1.726-.392.33-.267.471-.644.471-1.162 0-.518-.188-.879-.565-1.114-.377-.236-.973-.33-1.79-.33h-1.506v2.983l.016.015Zm0 2.26v3.501h1.852c.863 0 1.46-.172 1.79-.502.329-.33.502-.77.502-1.334 0-.33-.079-.628-.22-.88-.142-.25-.393-.455-.738-.596-.345-.141-.816-.204-1.428-.204h-1.758v.016Z"/>
</svg>
