<svg width="64" height="64" viewBox="0 0 64 64" fill="none" xmlns="http://www.w3.org/2000/svg">
<rect width="64" height="64" rx="17.1142" fill="#374151"/>
<rect width="64" height="64" rx="17.1142" fill="url(#paint0_linear_640_1986)" fill-opacity="0.2"/>
<path d="M12.3571 44.2746C11.5585 44.2746 10.9423 44.0579 10.5088 43.6243C10.098 43.1679 9.89268 42.529 9.89268 41.7075V22.1973C9.89268 21.3302 10.098 20.6684 10.5088 20.2121C10.9423 19.7557 11.5128 19.5275 12.2202 19.5275C12.8363 19.5275 13.3041 19.653 13.6236 19.904C13.9659 20.1322 14.3538 20.5201 14.7873 21.0678L26.8015 36.3679H25.8773V22.0604C25.8773 21.2617 26.0827 20.6456 26.4935 20.2121C26.927 19.7557 27.5431 19.5275 28.3418 19.5275C29.1405 19.5275 29.7452 19.7557 30.1559 20.2121C30.5895 20.6456 30.8062 21.2617 30.8062 22.0604V41.8102C30.8062 42.5632 30.6123 43.1679 30.2244 43.6243C29.8364 44.0579 29.3116 44.2746 28.6498 44.2746C28.0109 44.2746 27.4975 44.1491 27.1096 43.8981C26.7445 43.6471 26.3451 43.2478 25.9116 42.7001L13.9316 27.4H14.8216V41.7075C14.8216 42.529 14.6162 43.1679 14.2055 43.6243C13.7947 44.0579 13.1786 44.2746 12.3571 44.2746ZM38.3341 44.2746C37.467 44.2746 36.8052 44.035 36.3488 43.5558C35.8925 43.0766 35.6643 42.4035 35.6643 41.5364V22.2315C35.6643 21.3644 35.8925 20.7027 36.3488 20.2463C36.8052 19.7671 37.467 19.5275 38.3341 19.5275C39.1784 19.5275 39.8287 19.7671 40.2851 20.2463C40.7415 20.7027 40.9697 21.3644 40.9697 22.2315V30.3437H41.0381L50.1429 20.8282C50.5308 20.4174 50.9301 20.1094 51.3409 19.904C51.7744 19.6758 52.265 19.5617 52.8127 19.5617C53.6114 19.5617 54.1818 19.7671 54.5241 20.1778C54.8892 20.5886 55.049 21.0678 55.0033 21.6154C54.9577 22.1631 54.7067 22.6765 54.2503 23.1557L45.1113 32.5001L45.1455 30.2068L54.7295 40.4411C55.2543 41.0115 55.5167 41.5934 55.5167 42.1867C55.5396 42.78 55.3456 43.282 54.9349 43.6928C54.5469 44.0807 53.9651 44.2746 53.1892 44.2746C52.5275 44.2746 51.9912 44.1377 51.5805 43.8639C51.1926 43.5901 50.759 43.1907 50.2798 42.6659L41.0381 32.945H40.9697V41.5364C40.9697 42.4035 40.7415 43.0766 40.2851 43.5558C39.8515 44.035 39.2012 44.2746 38.3341 44.2746Z" fill="white"/>
<defs>
<linearGradient id="paint0_linear_640_1986" x1="32" y1="0" x2="32" y2="64" gradientUnits="userSpaceOnUse">
<stop stop-color="white"/>
<stop offset="1" stop-color="white" stop-opacity="0"/>
</linearGradient>
</defs>
</svg>
