<svg xmlns="http://www.w3.org/2000/svg" width="172" height="40" fill="none"><rect width="39.889" height="39.889" fill="#374151" rx="10.667"/><rect width="39.889" height="39.889" fill="url(#a)" fill-opacity=".2" rx="10.667"/><path fill="#fff" d="M7.62 27.636c-.498 0-.882-.135-1.152-.405-.256-.284-.384-.683-.384-1.195v-12.16c0-.54.128-.953.384-1.237.27-.284.626-.427 1.067-.427.384 0 .675.079.874.235.214.142.455.384.726.725l7.488 9.536h-.576v-8.917c0-.498.128-.882.384-1.152.27-.284.654-.427 1.152-.427.497 0 .874.143 1.13.427.27.27.406.654.406 1.152v12.31c0 .469-.121.846-.363 1.13-.242.27-.569.405-.981.405-.399 0-.719-.078-.96-.234-.228-.157-.477-.406-.747-.747l-7.467-9.536h.555v8.917c0 .512-.128.91-.384 1.195-.256.27-.64.405-1.152.405Zm16.19 0c-.54 0-.952-.149-1.237-.448-.284-.298-.427-.718-.427-1.258V13.898c0-.54.143-.953.427-1.238.285-.298.697-.448 1.238-.448.526 0 .931.15 1.215.448.285.285.427.697.427 1.238v5.056h.043l5.675-5.931c.241-.256.49-.448.746-.576a1.94 1.94 0 0 1 .917-.213c.498 0 .854.128 1.067.384.228.256.327.554.299.896-.029.341-.185.661-.47.96l-5.695 5.824.02-1.43 5.974 6.379c.327.356.49.718.49 1.088.015.37-.106.683-.362.939-.242.241-.604.362-1.088.362-.412 0-.747-.085-1.003-.256a5.249 5.249 0 0 1-.81-.746l-5.76-6.059h-.043v5.355c0 .54-.142.96-.427 1.258-.27.299-.675.448-1.215.448Z"/><path fill="#374151" d="M55.133 29.204c-1.074 0-2.019-.268-2.834-.806-.797-.537-1.326-1.256-1.586-2.158l.286-.65v1.898c0 .538-.138.954-.416 1.248-.277.278-.667.416-1.17.416-.52 0-.918-.138-1.196-.416-.277-.294-.416-.71-.416-1.248V12.044c0-.537.139-.944.416-1.222.278-.277.676-.416 1.196-.416.52 0 .919.139 1.196.416.295.278.442.685.442 1.222v6.76h-.312c.278-.849.815-1.534 1.612-2.054.798-.52 1.725-.78 2.782-.78 1.127 0 2.106.269 2.938.806.832.538 1.482 1.3 1.95 2.288.468.971.702 2.141.702 3.51 0 1.352-.234 2.531-.702 3.536-.468.988-1.126 1.751-1.976 2.288-.832.538-1.802.806-2.912.806Zm-.91-2.47c.642 0 1.205-.156 1.69-.468.486-.312.858-.771 1.118-1.378.278-.624.416-1.395.416-2.314 0-1.386-.294-2.418-.884-3.094-.589-.693-1.369-1.04-2.34-1.04-.641 0-1.204.156-1.69.468-.485.295-.866.754-1.144 1.378-.26.607-.39 1.37-.39 2.288 0 1.37.295 2.41.884 3.12.59.694 1.37 1.04 2.34 1.04Zm14.056 2.47c-1.11 0-2.088-.268-2.938-.806-.832-.537-1.482-1.3-1.95-2.288-.468-1.005-.702-2.184-.702-3.536 0-1.369.234-2.539.702-3.51.468-.988 1.118-1.75 1.95-2.288.85-.537 1.829-.806 2.938-.806 1.058 0 1.976.26 2.756.78.797.52 1.335 1.205 1.612 2.054l-.26.65V17.66c0-.537.139-.944.416-1.222.295-.277.694-.416 1.196-.416.52 0 .919.139 1.196.416.278.278.416.685.416 1.222v9.828c0 .538-.139.954-.416 1.248-.277.278-.676.416-1.196.416-.52 0-.918-.138-1.196-.416-.277-.294-.416-.71-.416-1.248V25.72l.286.52c-.26.902-.788 1.621-1.586 2.158-.797.538-1.733.806-2.808.806Zm.91-2.47c.642 0 1.205-.156 1.69-.468.486-.312.858-.771 1.118-1.378.278-.624.416-1.395.416-2.314 0-1.386-.294-2.418-.884-3.094-.59-.693-1.37-1.04-2.34-1.04-.641 0-1.204.156-1.69.468-.485.295-.867.754-1.144 1.378-.26.607-.39 1.37-.39 2.288 0 1.37.295 2.41.884 3.12.59.694 1.37 1.04 2.34 1.04Zm15.668 2.47c-1.335 0-2.496-.268-3.484-.806a5.72 5.72 0 0 1-2.288-2.34c-.537-1.005-.806-2.184-.806-3.536 0-1.022.147-1.932.442-2.73.312-.814.754-1.499 1.326-2.054a5.58 5.58 0 0 1 2.08-1.3c.815-.312 1.725-.468 2.73-.468.572 0 1.187.078 1.846.234a6.271 6.271 0 0 1 1.898.78c.277.174.46.382.546.624.087.243.104.494.052.754-.052.243-.165.46-.338.65a1.088 1.088 0 0 1-.598.338c-.243.035-.511-.026-.806-.182a4.557 4.557 0 0 0-1.17-.494 3.929 3.929 0 0 0-1.144-.182c-.572 0-1.075.096-1.508.286a2.97 2.97 0 0 0-1.118.78c-.295.33-.52.746-.676 1.248-.156.503-.234 1.084-.234 1.742 0 1.283.303 2.297.91 3.042.624.728 1.5 1.092 2.626 1.092.364 0 .737-.052 1.118-.156a4.992 4.992 0 0 0 1.196-.494c.295-.156.555-.208.78-.156.243.052.442.174.598.364.156.174.251.39.286.65.035.243 0 .486-.104.728-.087.243-.26.442-.52.598a6.42 6.42 0 0 1-1.82.754 7.71 7.71 0 0 1-1.82.234Zm8-.052c-.52 0-.919-.138-1.196-.416-.278-.294-.416-.71-.416-1.248V12.044c0-.537.138-.944.416-1.222.277-.277.676-.416 1.196-.416.52 0 .918.139 1.196.416.294.278.442.685.442 1.222v9.594h.052l4.29-4.524a8.24 8.24 0 0 1 .91-.806c.26-.19.615-.286 1.066-.286.45 0 .788.122 1.014.364.242.226.364.503.364.832 0 .33-.156.659-.468.988l-4.524 4.784v-1.352l4.966 5.356c.312.33.45.668.416 1.014-.018.33-.156.607-.416.832-.26.208-.59.312-.988.312-.486 0-.876-.095-1.17-.286-.278-.19-.59-.476-.936-.858l-4.524-4.732h-.052v4.212c0 1.11-.546 1.664-1.638 1.664Zm18.125.052c-1.317 0-2.461-.268-3.432-.806a5.634 5.634 0 0 1-2.262-2.288c-.537-1.005-.806-2.184-.806-3.536 0-1.022.147-1.932.442-2.73a5.864 5.864 0 0 1 1.326-2.08 5.46 5.46 0 0 1 2.054-1.326c.797-.312 1.69-.468 2.678-.468 1.317 0 2.461.269 3.432.806a5.634 5.634 0 0 1 2.262 2.288c.537.988.806 2.158.806 3.51 0 1.023-.156 1.942-.468 2.756a5.831 5.831 0 0 1-1.3 2.106 5.915 5.915 0 0 1-2.054 1.326c-.797.295-1.69.442-2.678.442Zm0-2.47c.641 0 1.205-.156 1.69-.468.485-.312.858-.771 1.118-1.378.277-.624.416-1.395.416-2.314 0-1.386-.295-2.418-.884-3.094-.589-.693-1.369-1.04-2.34-1.04-.641 0-1.205.156-1.69.468-.485.295-.867.754-1.144 1.378-.26.607-.39 1.37-.39 2.288 0 1.37.295 2.41.884 3.12.589.694 1.369 1.04 2.34 1.04Zm11.679 2.418c-.52 0-.928-.138-1.222-.416-.278-.294-.416-.71-.416-1.248v-8.814h-1.196c-.416 0-.737-.104-.962-.312-.226-.225-.338-.528-.338-.91 0-.398.112-.702.338-.91.225-.208.546-.312.962-.312h2.132l-.936.858v-.884c0-1.785.45-3.12 1.352-4.004.901-.901 2.201-1.43 3.9-1.586l.884-.078c.346-.034.624.026.832.182.208.139.346.33.416.572.069.226.078.46.026.702-.052.243-.165.46-.338.65a.882.882 0 0 1-.624.286l-.364.026c-.988.07-1.708.321-2.158.754-.451.434-.676 1.092-.676 1.976v.962l-.416-.416h2.626c.416 0 .736.104.962.312.225.208.338.512.338.91 0 .382-.113.685-.338.91-.226.208-.546.312-.962.312h-2.21v8.814c0 1.11-.538 1.664-1.612 1.664Zm9.47 0c-.52 0-.927-.138-1.222-.416-.277-.294-.416-.71-.416-1.248v-8.814h-1.196c-.416 0-.736-.104-.962-.312-.225-.225-.338-.528-.338-.91 0-.398.113-.702.338-.91.226-.208.546-.312.962-.312h2.132l-.936.858v-.884c0-1.785.451-3.12 1.352-4.004.902-.901 2.202-1.43 3.9-1.586l.884-.078c.347-.034.624.026.832.182.208.139.347.33.416.572.07.226.078.46.026.702-.052.243-.164.46-.338.65a.882.882 0 0 1-.624.286l-.364.026c-.988.07-1.707.321-2.158.754-.45.434-.676 1.092-.676 1.976v.962l-.416-.416h2.626c.416 0 .737.104.962.312.226.208.338.512.338.91 0 .382-.112.685-.338.91-.225.208-.546.312-.962.312h-2.21v8.814c0 1.11-.537 1.664-1.612 1.664Zm8.587-.026c-.52 0-.919-.156-1.196-.468-.277-.312-.416-.745-.416-1.3v-9.542c0-.572.139-1.005.416-1.3.277-.312.676-.468 1.196-.468.52 0 .919.156 1.196.468.295.295.442.728.442 1.3v9.542c0 .555-.139.988-.416 1.3-.277.312-.685.468-1.222.468Zm0-15.496c-.607 0-1.083-.147-1.43-.442-.329-.312-.494-.736-.494-1.274 0-.554.165-.979.494-1.274.347-.294.823-.442 1.43-.442.624 0 1.101.148 1.43.442.329.295.494.72.494 1.274 0 .538-.165.962-.494 1.274-.329.295-.806.442-1.43.442Zm10.891 15.574c-1.335 0-2.496-.268-3.484-.806a5.719 5.719 0 0 1-2.288-2.34c-.537-1.005-.806-2.184-.806-3.536 0-1.022.147-1.932.442-2.73.312-.814.754-1.499 1.326-2.054a5.577 5.577 0 0 1 2.08-1.3c.815-.312 1.725-.468 2.73-.468.572 0 1.187.078 1.846.234a6.268 6.268 0 0 1 1.898.78c.277.174.459.382.546.624.087.243.104.494.052.754-.052.243-.165.46-.338.65a1.087 1.087 0 0 1-.598.338c-.243.035-.511-.026-.806-.182a4.548 4.548 0 0 0-1.17-.494 3.93 3.93 0 0 0-1.144-.182c-.572 0-1.075.096-1.508.286a2.971 2.971 0 0 0-1.118.78c-.295.33-.52.746-.676 1.248-.156.503-.234 1.084-.234 1.742 0 1.283.303 2.297.91 3.042.624.728 1.499 1.092 2.626 1.092.364 0 .737-.052 1.118-.156a4.992 4.992 0 0 0 1.196-.494c.295-.156.555-.208.78-.156.243.052.442.174.598.364.156.174.251.39.286.65.035.243 0 .486-.104.728-.087.243-.26.442-.52.598a6.423 6.423 0 0 1-1.82.754 7.709 7.709 0 0 1-1.82.234Zm12.654 0c-1.439 0-2.678-.268-3.718-.806a5.813 5.813 0 0 1-2.418-2.288c-.555-.988-.832-2.158-.832-3.51 0-1.317.268-2.47.806-3.458a6.037 6.037 0 0 1 2.262-2.314c.97-.572 2.071-.858 3.302-.858.901 0 1.707.148 2.418.442a4.97 4.97 0 0 1 1.846 1.274c.52.555.91 1.231 1.17 2.028.277.78.416 1.664.416 2.652 0 .312-.113.555-.338.728-.208.156-.512.234-.91.234h-8.346v-1.872h7.306l-.416.39c0-.797-.122-1.464-.364-2.002-.226-.537-.564-.944-1.014-1.222-.434-.294-.98-.442-1.638-.442-.728 0-1.352.174-1.872.52-.503.33-.893.806-1.17 1.43-.26.607-.39 1.335-.39 2.184v.182c0 1.422.329 2.488.988 3.198.676.694 1.664 1.04 2.964 1.04.45 0 .953-.052 1.508-.156a5.816 5.816 0 0 0 1.612-.598c.364-.208.684-.294.962-.26.277.018.494.113.65.286a1.1 1.1 0 0 1 .312.65c.034.243-.018.494-.156.754-.122.26-.338.486-.65.676-.607.382-1.309.668-2.106.858-.78.174-1.508.26-2.184.26Z"/><defs><linearGradient id="a" x1="19.944" x2="19.944" y1="0" y2="39.889" gradientUnits="userSpaceOnUse"><stop stop-color="#fff"/><stop offset="1" stop-color="#fff" stop-opacity="0"/></linearGradient></defs></svg>